<svg xmlns="http://www.w3.org/2000/svg" width="117" height="40" fill="none"><g clip-path="url(#bpeq-logo_svg__a)"><path fill="#636466" d="M44.788 35.301a1.27 1.27 0 0 0-.857-1.079 1.25 1.25 0 0 0-1.328.35 1.268 1.268 0 0 0 .93 2.117 1.25 1.25 0 0 0 .928-.407 1.26 1.26 0 0 0 .327-.962m-3.422 0a2.2 2.2 0 0 1 .345-1.221 2.16 2.16 0 0 1 3.34-.376 2.18 2.18 0 0 1 .489 2.378c-.163.4-.44.743-.798.984a2.16 2.16 0 0 1-1.208.37 2.07 2.07 0 0 1-1.552-.601 2.1 2.1 0 0 1-.616-1.553m4.949 2.079v-4.163h2.93v.781h-2.046v.875h2.004v.78h-2.004v1.727zm7.516-.78-.468-.537.618-.503.468.536a1.5 1.5 0 0 0 .21-.795 1.27 1.27 0 0 0-.86-1.08 1.25 1.25 0 0 0-1.33.359 1.27 1.27 0 0 0 .264 1.912c.206.132.447.2.691.197q.219-.002.426-.071m-2.593-1.298c0-.577.228-1.13.633-1.537a2.157 2.157 0 0 1 3.059 0c.405.408.633.96.633 1.537a2.2 2.2 0 0 1-.538 1.472l.304.358-.613.48-.337-.386a2.3 2.3 0 0 1-.974.207 2.08 2.08 0 0 1-1.55-.604 2.1 2.1 0 0 1-.617-1.55m4.948.418v-2.498h.904v2.474a.98.98 0 0 0 .583.965.97.97 0 0 0 1.306-.57 1 1 0 0 0 .053-.395v-2.474h.899v2.498c0 1.03-.609 1.74-1.873 1.74-1.263 0-1.872-.71-1.872-1.74m4.555 1.665v-4.163h2.93v.781h-2.045v.875h2.003v.78h-2.004v.946h2.046v.781zm3.617 0v-4.163h2.93v.781h-2.045v.875h2.003v.78h-2.003v.946h2.045v.781zm6.478 0-1.975-2.714v2.714H68v-4.163h.903l1.92 2.616v-2.616h.88v4.163zm1.381-.588.468-.691a1.82 1.82 0 0 0 1.335.588c.491 0 .72-.221.72-.47 0-.725-2.382-.222-2.382-1.788 0-.692.594-1.265 1.568-1.265a2.3 2.3 0 0 1 1.615.583l-.468.658a1.78 1.78 0 0 0-1.203-.47c-.375 0-.585.165-.585.414 0 .654 2.377.212 2.377 1.764 0 .762-.547 1.336-1.657 1.336a2.38 2.38 0 0 1-1.764-.664m3.95.593v-4.163h.89V36.6h1.751v.781zm4.948-3.274-.646 1.788h1.292zm1.147 3.293-.257-.706h-1.78l-.257.706H79.01l1.596-4.163h1.105l1.61 4.144zm4.242-.019-1.976-2.714v2.714h-.88v-4.163h.909l1.914 2.616v-2.616h.885v4.163zm4.6-2.102a1.22 1.22 0 0 0-.776-1.2 1.2 1.2 0 0 0-.497-.08h-.758V36.6h.758a1.24 1.24 0 0 0 1.198-.813c.06-.163.085-.336.075-.508m-2.93 2.083v-4.144h1.657c1.297 0 2.195.833 2.195 2.08 0 1.246-.898 2.083-2.19 2.083zm-44.3-24.752a.47.47 0 0 0-.328-.452.5.5 0 0 0-.197-.018H42.25v.94h1.142c.328 0 .525-.173.525-.47m-.08-1.688a.44.44 0 0 0-.468-.437H42.25v.87h1.105a.424.424 0 0 0 .468-.433m-2.471 2.944V9.705h2.18a1.07 1.07 0 0 1 1.094.626c.062.137.095.286.096.437a.94.94 0 0 1-.712.94 1 1 0 0 1 .796 1.021 1.1 1.1 0 0 1-.746 1.08 1.1 1.1 0 0 1-.462.049zm7.353-2.079a1.27 1.27 0 0 0-.34-.944 1.26 1.26 0 0 0-1.416-.294 1.26 1.26 0 0 0-.758 1.238 1.27 1.27 0 0 0 .758 1.239 1.254 1.254 0 0 0 1.683-.731q.088-.246.073-.508m-3.422 0c0-.576.228-1.129.634-1.536a2.157 2.157 0 0 1 3.058 0 2.18 2.18 0 0 1 0 3.073 2.157 2.157 0 0 1-3.058 0 2.18 2.18 0 0 1-.634-1.537m6.452-1.199-.646 1.792h1.291zm1.146 3.293-.257-.706h-1.779l-.257.705h-1.002l1.596-4.162h1.105l1.596 4.163zm3.816-2.841a.566.566 0 0 0-.618-.555h-.936v1.124h.936a.56.56 0 0 0 .57-.34.6.6 0 0 0 .048-.23m-.089 2.822-.814-1.482h-.646v1.482h-.88V9.704h1.938a1.29 1.29 0 0 1 1.307.803c.07.17.103.354.097.537a1.21 1.21 0 0 1-.936 1.237l.936 1.585zm4.582-2.078a1.22 1.22 0 0 0-.77-1.22 1.2 1.2 0 0 0-.503-.079h-.759v2.602h.759a1.24 1.24 0 0 0 1.214-.795c.062-.162.09-.335.083-.508m-2.93 2.083V9.704h1.633c1.297 0 2.195.827 2.195 2.079 0 1.25-.898 2.083-2.19 2.083zm9.249-2.079a1.27 1.27 0 0 0-.757-1.238 1.254 1.254 0 0 0-1.684.731 1.3 1.3 0 0 0-.073.507 1.27 1.27 0 0 0 .34.944 1.26 1.26 0 0 0 1.417.295 1.26 1.26 0 0 0 .757-1.239m-3.422 0a2.2 2.2 0 0 1 .669-1.474 2.16 2.16 0 0 1 2.993 0c.403.387.642.915.668 1.474a2.18 2.18 0 0 1-.668 1.475 2.16 2.16 0 0 1-2.993 0 2.18 2.18 0 0 1-.669-1.475m4.948 2.079V9.704h2.93v.78h-2.046v.87h2.004v.781h-2.004v1.731z"/><path fill="#00B8D6" d="M41.365 31.284v-7.06h4.976v1.322h-3.478v1.481h3.403v1.327h-3.403v1.608h3.478v1.322zm10.988 0-3.347-4.605v4.605h-1.498v-7.06h1.54l3.253 4.435v-4.435H53.8v7.06zm2.494-3.532c0-2.235 1.685-3.655 3.745-3.655a3.26 3.26 0 0 1 1.66.395c.509.277.936.684 1.237 1.18l-1.231.683a2.02 2.02 0 0 0-1.666-.941 2.3 2.3 0 0 0-1.565.714 2.325 2.325 0 0 0 0 3.205c.41.431.971.687 1.565.714.543 0 1.069-.19 1.488-.536v-.819h-1.872V27.38h3.347v2.724a3.89 3.89 0 0 1-2.982 1.321c-2.064 0-3.745-1.41-3.745-3.65m9.438-3.551h-1.498v7.06h1.498zm6.234 7.06-3.352-4.605v4.605H65.65v-7.06h1.54l3.258 4.435v-4.435h1.494v7.06zm2.832 0v-7.06h4.971v1.322h-3.478v1.481h3.403v1.327h-3.403v1.608h3.478v1.322zm6.137 0v-7.06h4.97v1.322h-3.472v1.481h3.403v1.327h-3.403v1.608h3.473v1.322zm10.26-4.793a.945.945 0 0 0-.653-.903.9.9 0 0 0-.391-.038h-1.582v1.882h1.582a.93.93 0 0 0 .963-.554.95.95 0 0 0 .08-.387m-.15 4.793-1.404-2.507h-1.096v2.507h-1.493v-7.055h3.277a2.2 2.2 0 0 1 1.721.584 2.2 2.2 0 0 1 .694 1.687 2.05 2.05 0 0 1-.396 1.328 2.03 2.03 0 0 1-1.149.765l1.587 2.691zm2.319-.992.823-1.176a3.08 3.08 0 0 0 2.233.94c.829 0 1.222-.367 1.222-.78 0-1.228-4.05-.372-4.05-3.03 0-1.175 1.017-2.15 2.669-2.15a3.9 3.9 0 0 1 2.738.989l-.833 1.12a3 3 0 0 0-2.04-.772c-.633 0-.993.273-.993.696 0 1.115 4.035.362 4.035 2.996 0 1.294-.936 2.267-2.809 2.267a4.06 4.06 0 0 1-2.99-1.12M45.485 18.071a.95.95 0 0 0-.65-.9.9.9 0 0 0-.39-.04h-1.582v1.881h1.606a.93.93 0 0 0 .96-.555.95.95 0 0 0 .079-.386m-4.12 4.784V15.8h3.277a2.25 2.25 0 0 1 1.599.665 2.27 2.27 0 0 1 .662 1.606 2.28 2.28 0 0 1-.662 1.607 2.26 2.26 0 0 1-1.599.665h-1.802v2.517zm10.511-4.793a.94.94 0 0 0-.653-.903.9.9 0 0 0-.391-.038h-1.578v1.882h1.578a.93.93 0 0 0 .964-.554.95.95 0 0 0 .08-.387m-.146 4.793-1.404-2.507h-1.095v2.507h-1.498V15.8h3.276a2.2 2.2 0 0 1 1.694.604 2.2 2.2 0 0 1 .68 1.672c.024.476-.117.946-.4 1.329a2.04 2.04 0 0 1-1.15.769l1.592 2.686zm8.005-3.523c0-1.326-.829-2.319-2.126-2.319s-2.139.993-2.139 2.319.833 2.305 2.14 2.305c1.305 0 2.124-1.007 2.124-2.32m-5.804 0a3.7 3.7 0 0 1 1.12-2.524 3.666 3.666 0 0 1 5.104 0 3.7 3.7 0 0 1 1.12 2.525 3.7 3.7 0 0 1-1.12 2.525 3.665 3.665 0 0 1-5.103 0 3.7 3.7 0 0 1-1.12-2.525m8.28 3.537v-7.06h4.971v1.322h-3.473v1.481h3.399v1.327h-3.399v2.93zm5.906 0v-7.06h4.972v1.322h-3.474v1.481h3.404v1.327h-3.404v1.608h3.474v1.322zm5.909-.992.847-1.167a3.1 3.1 0 0 0 2.21.94c.833 0 1.221-.37 1.221-.785 0-1.227-4.044-.371-4.044-3.029 0-1.176 1.011-2.15 2.663-2.15a3.9 3.9 0 0 1 2.743.988l-.833 1.12a3.03 3.03 0 0 0-2.045-.772c-.632 0-.988.278-.988.701 0 1.11 4.035.358 4.035 2.997 0 1.288-.936 2.262-2.809 2.262a4.06 4.06 0 0 1-2.996-1.12m6.24.015.82-1.176a3.1 3.1 0 0 0 2.232.95c.833 0 1.222-.372 1.222-.786 0-1.227-4.045-.371-4.045-3.029 0-1.176 1.011-2.15 2.668-2.15a3.9 3.9 0 0 1 2.739.988l-.833 1.12a3.03 3.03 0 0 0-2.046-.771c-.632 0-.988.277-.988.7 0 1.11 4.035.358 4.035 2.997 0 1.288-.936 2.262-2.808 2.262a4.05 4.05 0 0 1-2.991-1.12m8.233-6.053h-1.498v7.06h1.498zm6.737 3.537c0-1.326-.829-2.319-2.126-2.319s-2.139.993-2.139 2.319.834 2.305 2.149 2.305 2.125-1.007 2.125-2.32m-5.804 0a3.7 3.7 0 0 1 1.12-2.524 3.666 3.666 0 0 1 5.103 0 3.7 3.7 0 0 1 1.121 2.525 3.7 3.7 0 0 1-1.12 2.525 3.666 3.666 0 0 1-5.104 0 3.7 3.7 0 0 1-1.12-2.525m13.114 3.537-3.352-4.605v4.605h-1.493v-7.06h1.535l3.258 4.435v-4.435h1.498v7.06zm5.692-5.555-1.086 3.039h2.191zm1.948 5.555-.445-1.195h-3.01l-.445 1.195h-1.694l2.705-7.055h1.873l2.705 7.055zm2.294-7.06v7.06h4.48v-1.322h-2.972v-5.738z"/><path fill="#B4DBDF" d="m8.05 0 7.659 9.135 5.444 6.49 13.574 16.186.005-12.681z"/><path fill="#88D1CE" d="M.234 5.8v26.01L8.052 0z"/><path fill="#94D9F8" d="M10.402 36.562 34.73 31.81H16.862z"/><path fill="#66CAD8" d="M15.709 9.135 8.05 0l4.011 14.483z"/><path fill="#40C2CC" d="M8.052 0 .234 31.81l11.83-17.327z"/><path fill="#51C6DB" d="m13.926 21.218 7.227-5.592-5.444-6.491-3.646 5.348z"/><path fill="#23BBC8" d="M12.063 14.483.234 31.81l13.692-10.593z"/><path fill="#0CBBDB" d="m13.926 21.218 2.935 10.593h17.867L21.153 15.626z"/><path fill="#00B2C6" d="M13.926 21.218.234 31.811h16.627z"/><path fill="#38C6F4" d="M16.861 31.81H.234l10.167 4.752zm.905 8.19 16.963-8.19-24.327 4.752z"/></g><defs><clipPath id="bpeq-logo_svg__a"><path fill="#fff" d="M0 0h117v40H0z"/></clipPath></defs></svg>