<?xml version="1.0" encoding="UTF-8"?>
<svg xmlns="http://www.w3.org/2000/svg" version="1.1" viewBox="205.5 185 1089 619">
  <!-- Generator: Adobe Illustrator 28.6.0, SVG Export Plug-In . SVG Version: 1.2.0 Build 709)  -->
  <g>
    <g id="Layer_1">
      <g>
        <rect x="205.61" y="781.06" width="1088.23" height="22.69"/>
        <polygon points="391.45 684.57 391.45 673.45 314.3 673.45 314.3 728.99 391.45 728.99 391.45 717.88 325.39 717.88 325.39 706.78 369.82 706.78 369.82 695.66 325.39 695.66 325.39 684.57 391.45 684.57"/>
        <polygon points="789.02 684.57 789.02 673.45 711.87 673.45 711.87 728.99 789.02 728.99 789.02 717.88 722.97 717.88 722.97 706.78 767.4 706.78 767.4 695.66 722.97 695.66 722.97 684.57 789.02 684.57"/>
        <polygon points="881.82 684.57 881.82 673.45 804.67 673.45 804.67 728.99 881.82 728.99 881.82 717.88 815.77 717.88 815.77 706.78 860.19 706.78 860.19 695.66 815.77 695.66 815.77 684.57 881.82 684.57"/>
        <rect x="989.37" y="673.45" width="11.1" height="55.54"/>
        <path d="M973.06,690.12h0c0-9.2-7.46-16.66-16.66-16.66h-59.64v55.54h11.1v-22.21h21.77c2.26,12.62,13.27,22.21,26.54,22.21h16.19v-11.12h-16.19c-7.1,0-13.11-4.67-15.14-11.1h15.37c9.2,0,16.66-7.46,16.66-16.66ZM907.85,695.66v-11.1h47.73c3.06,0,5.55,2.48,5.55,5.55h0c0,3.06-2.48,5.55-5.55,5.55h-47.73Z"/>
        <polygon points="407.27 728.99 418.37 728.99 418.37 692.88 472.39 722.03 483.48 728.02 483.48 673.45 472.39 673.45 472.39 709.42 418.37 680.26 407.27 674.27 407.27 728.99"/>
        <polygon points="630.71 680.26 619.61 674.27 619.61 728.99 630.71 728.99 630.71 692.88 684.73 722.03 695.83 728.02 695.83 673.45 684.73 673.45 684.73 709.42 630.71 680.26"/>
        <polygon points="1016 674.27 1016 728.99 1027.1 728.99 1027.1 692.88 1081.12 722.03 1092.22 728.02 1092.22 673.45 1081.12 673.45 1081.12 709.42 1027.1 680.26 1016 674.27"/>
        <rect x="591.58" y="673.45" width="11.1" height="55.54"/>
        <path d="M510.62,701.05c0-10,7.32-16.48,31.28-16.48h33.88v-11.12h-41.95c-19.65,0-34.08,12.31-34.3,27.6v.35c.22,15.29,14.65,27.6,34.3,27.6h41.95v-32.91h-32.19v10.27h21.02v11.52h-22.71c-23.93,0-31.26-6.48-31.28-16.48v-.35Z"/>
        <path d="M1143.57,728.99h41.95v-32.91h-32.19v10.27h21.02v11.52h-22.71c-23.93,0-31.26-6.48-31.28-16.48v-.35c0-10,7.32-16.48,31.28-16.48h33.88v-11.12h-41.95c-19.65,0-34.08,12.31-34.3,27.6v.35c.22,15.29,14.65,27.6,34.3,27.6Z"/>
        <path d="M624.39,282.39h24.66s10.39-22.15,17.2-37.08c6.81-14.93,13.26-22.21,13.26-22.21l5.73-1.55s2.39-10.87,11.23-20.54c0,0,40.13,14.21,88.14,44.79l-54.46,80.49s20.9-8.6,34.07-12.63c13.17-4.03,25.8-7.61,25.8-7.61l1.7-21.86,30.19-7.08,14.51-57.59,30.9,30.63,102.65,79.36-64.85-89.03-13.08,20.96-46.94-66.64-55.36,34.93-55.53-40.31-14.33,9.67-25.62-13.97-21.23,30.28-25.71-9.76-61.33,80.41-16.24-2.75-39.26,44.96,82.98-5.54s1.79-24.54,10.93-40.31Z"/>
        <path d="M1175.98,542.54h70.85c4.3,0,7.8,3.5,7.8,7.8v30.29c0,4.3-3.5,7.8-7.8,7.8h-105.46c-2.95,0-5.33,2.4-5.33,5.35v29.24c0,2.95,2.38,5.35,5.33,5.35h106.08c22.4,0,44.43-16.11,46.11-43.64.93-15.44,1.36-27.27-.27-41.99-3.55-32.06-21.32-40.16-43.67-40.16h-70.85c-4.3,0-7.8-3.5-7.8-7.8v-30.29c0-4.3,3.5-7.8,7.8-7.8h105.44c2.95,0,5.35-2.4,5.35-5.35v-29.24c0-2.95-2.4-5.35-5.35-5.35h-106.08c-22.38,0-44.43,16.11-46.09,43.64-.95,15.44-1.37,27.27.27,41.99,3.55,32.06,21.3,40.16,43.67,40.16Z"/>
        <path d="M211.38,628.37h28.66c2.4,0,4.58-1.47,5.48-3.7l15.99-39.77h57.43c5.07,0,8.41-5.26,6.26-9.83-3.9-8.26-9.56-19.58-12.27-24.96-.97-1.92-2.91-3.11-5.05-3.11h-31.15l32.93-81.93,64.04,159.61c.9,2.23,3.08,3.7,5.48,3.7h29.03c3.75,0,6.34-3.79,4.94-7.27l-72.96-183.76c-4.94-12.43-16.98-20.58-30.34-20.58-6.7,0-13.04,2.03-18.33,5.62-5.29,3.59-9.54,8.73-12.01,14.94l-73.05,183.78c-1.39,3.48,1.17,7.27,4.94,7.27Z"/>
        <path d="M830.59,450.7v-27.95c0-3.31-2.69-6-6-6h-170.73c-3.31,0-6,2.69-6,6v27.95c0,3.31,2.69,6,6,6h67.2v166.45c0,2.89,2.34,5.22,5.23,5.22h26.1c2.89,0,5.23-2.34,5.23-5.22v-166.45h66.97c3.31,0,6-2.69,6-6Z"/>
        <path d="M528.82,628.37h92.87c2.92,0,5.29-2.37,5.29-5.29v-27.33c0-2.92-2.37-5.29-5.29-5.29h-88.95c-11.61,0-21.02-9.41-21.02-21.02v-147.4c0-2.92-2.37-5.29-5.29-5.29h-25.98c-2.92,0-5.29,2.37-5.29,5.29v152.68c0,29.63,24.02,53.65,53.65,53.65Z"/>
        <path d="M926.86,567.54v-142.49c0-4.58-2.36-8.3-5.29-8.3h-25.97c-2.93,0-5.29,3.72-5.29,8.3v139.67c1.9,41.39,21.08,63.65,62.1,63.65h56.62c41.02,0,60.19-22.27,62.1-63.65v-139.67c0-4.58-2.36-8.3-5.29-8.3h-25.97c-2.93,0-5.29,3.72-5.29,8.3v142.49c0,12.65-10.27,22.93-22.95,22.93h-61.84c-12.65,0-22.93-10.27-22.93-22.93Z"/>
      </g>
    </g>
  </g>
</svg>